<?xml version="1.0" encoding="iso-8859-1"?>
<!-- Generator: Adobe Illustrator 19.0.0, SVG Export Plug-In . SVG Version: 6.00 Build 0)  -->
<svg version="1.1" id="Layer_1" xmlns="http://www.w3.org/2000/svg" xmlns:xlink="http://www.w3.org/1999/xlink" x="0px" y="0px"
	 viewBox="0 0 512 512" style="enable-background:new 0 0 512 512;" xml:space="preserve">
<g>
	<path style="fill:#94D77F;" d="M373.06,54.07c0,72.094-20.445,130.537-45.667,130.537s-45.667-58.444-45.667-130.537
		S373.06-18.024,373.06,54.07z"/>
	<path style="fill:#94D77F;" d="M457.93,138.94c-72.094,0-130.537,20.445-130.537,45.667s58.443,45.667,130.537,45.667
		S530.024,138.94,457.93,138.94z"/>
</g>
<g>
	<path style="fill:#84BF71;" d="M327.393,195.423c-5.973,0-10.816-4.843-10.816-10.816V53.401c0-5.973,4.843-10.816,10.816-10.816
		c5.973,0,10.816,4.843,10.816,10.816v131.207C338.209,190.58,333.366,195.423,327.393,195.423z"/>
	<path style="fill:#84BF71;" d="M458.6,195.423H327.393c-5.973,0-10.816-4.843-10.816-10.816s4.843-10.816,10.816-10.816H458.6
		c5.973,0,10.816,4.843,10.816,10.816S464.574,195.423,458.6,195.423z"/>
</g>
<path style="fill:#ABEB8A;" d="M451.988,124.595c-50.978,50.978-106.762,77.847-124.595,60.012
	c-17.833-17.833,9.035-73.617,60.012-124.595C438.382,9.034,502.966,73.617,451.988,124.595z"/>
<path style="fill:#94D77F;" d="M327.393,195.423c-2.767,0-5.536-1.056-7.648-3.168c-4.224-4.224-4.224-11.073,0-15.297
	l92.777-92.777c4.224-4.224,11.073-4.224,15.295,0c4.224,4.224,4.224,11.073,0,15.297l-92.777,92.777
	C332.93,194.367,330.161,195.423,327.393,195.423z"/>
<path style="fill:#FF9A4E;" d="M351.21,171.887c-3.842-3.556-7.539-7.255-11.097-11.097
	C230.564,42.475-60.166,429.611,11.112,500.888S469.525,281.437,351.21,171.887z"/>
<g>
	<path style="fill:#E68A46;" d="M315.393,288.366c-1.494,0-3.013-0.311-4.462-0.969c-9.349-4.241-19.677-11.756-29.081-21.161
		c-9.269-9.269-16.723-19.465-20.992-28.71c-2.504-5.424-0.136-11.85,5.287-14.354c5.424-2.502,11.849-0.137,14.354,5.287
		c3.178,6.886,9.246,15.08,16.647,22.482c7.502,7.502,15.784,13.609,22.722,16.758c5.44,2.467,7.85,8.878,5.381,14.318
		C323.439,286.005,319.506,288.366,315.393,288.366z"/>
	<path style="fill:#E68A46;" d="M205.927,308.556c-1.494,0-3.013-0.312-4.462-0.969c-9.348-4.241-19.677-11.756-29.081-21.161
		c-9.269-9.269-16.723-19.465-20.992-28.712c-2.504-5.424-0.136-11.85,5.287-14.354c5.424-2.504,11.85-0.137,14.354,5.287
		c3.178,6.886,9.246,15.08,16.647,22.482c7.502,7.502,15.784,13.609,22.722,16.758c5.44,2.467,7.85,8.878,5.381,14.319
		C213.973,306.197,210.04,308.556,205.927,308.556z"/>
	<path style="fill:#E68A46;" d="M97.758,440.794c-1.576,0-3.176-0.346-4.691-1.076c-7.251-3.497-15.311-9.491-22.695-16.874
		c-7.277-7.278-13.22-15.235-16.733-22.404c-2.628-5.365-0.41-11.843,4.954-14.472c5.366-2.629,11.844-0.41,14.472,4.954
		c2.455,5.011,7.049,11.071,12.603,16.625c5.629,5.629,11.751,10.252,16.797,12.686c5.381,2.594,7.638,9.061,5.043,14.442
		C105.644,438.54,101.78,440.794,97.758,440.794z"/>
</g>
<path style="opacity:0.1;enable-background:new    ;" d="M364.508,188.282c-3.398-5.819-7.801-11.303-13.298-16.394
	c-3.842-3.556-7.541-7.255-11.097-11.097C230.564,42.475-60.166,429.611,11.112,500.888c7.071,7.071,17.26,10.568,29.747,11.044
	C36.76,404.403,257.533,125.824,364.508,188.282z"/>
<path style="fill:#E68A46;" d="M193.074,410.684c-1.576,0-3.176-0.346-4.691-1.076c-7.251-3.497-15.311-9.491-22.695-16.874
	c-7.276-7.276-13.219-15.233-16.733-22.404c-2.629-5.365-0.411-11.843,4.954-14.472s11.843-0.411,14.472,4.954
	c2.456,5.013,7.051,11.073,12.604,16.625c5.629,5.629,11.751,10.252,16.797,12.686c5.381,2.594,7.638,9.061,5.043,14.442
	C200.959,408.43,197.096,410.684,193.074,410.684z"/>
<g>
</g>
<g>
</g>
<g>
</g>
<g>
</g>
<g>
</g>
<g>
</g>
<g>
</g>
<g>
</g>
<g>
</g>
<g>
</g>
<g>
</g>
<g>
</g>
<g>
</g>
<g>
</g>
<g>
</g>
</svg>
