<?xml version="1.0" encoding="iso-8859-1"?>
<!-- Generator: Adobe Illustrator 19.0.0, SVG Export Plug-In . SVG Version: 6.00 Build 0)  -->
<svg version="1.1" id="Capa_1" xmlns="http://www.w3.org/2000/svg" xmlns:xlink="http://www.w3.org/1999/xlink" x="0px" y="0px"
	 viewBox="0 0 512.001 512.001" style="enable-background:new 0 0 512.001 512.001;" xml:space="preserve">
<path style="fill:#32D736;" d="M469.221,99.539c14.7-19.799,10.199-41.999-3.001-56.4c-14.099-15.899-38.699-22.2-60.3-5.999
	c-9-53.701-89.399-47.401-89.399,7.5v79.199c0,6,3.6,11.4,9,13.801c10.201,4.499,19.2,11.1,27.001,18.9
	c6.599,7.2,11.999,15.3,15.899,24c2.401,5.4,7.8,9,13.801,9h85.201C525.621,189.539,527.421,101.94,469.221,99.539z"/>
<path style="fill:#10BB67;" d="M467.421,189.539H382.22c-6,0-11.4-3.6-13.801-9c-3.9-8.699-9.3-16.8-15.899-24l113.7-113.4
	c13.2,14.401,17.701,36.601,3.001,56.4C527.421,101.94,525.621,189.539,467.421,189.539z"/>
<path style="fill:#FEA832;" d="M403.221,189.539c-4.801-19.799-15-38.699-29.7-54c-0.601-0.601-0.901-0.901-1.501-1.5
	c-15.599-15.901-34.799-26.4-55.499-31.5c-30-7.5-62.401-3.3-90,12.9c-3.6,2.401-7.2,4.499-10.499,7.2
	c-4.801,3.3-9.3,6.899-13.5,11.4c-11.4,11.4-30.901,41.7-51.301,75.899c-5.4,8.701-10.499,17.701-15.899,26.7
	c-17.1,30.3-33.9,60.901-45.3,81.899c-3.9,6.901-7.2,12.9-9.6,17.401c-1.8,3.6-3.6,6.899-5.4,10.201
	c-40.501,75.599-73.2,143.713-73.5,144.312c-2.701,5.7-1.8,12.902,2.999,17.401c4.801,4.501,11.7,5.4,17.401,2.401
	c11.1-5.4,105-58.514,194.101-108.313l9.899-5.4c4.2-2.401,9.901-5.7,17.1-9.901c21-12.001,52.8-30.3,79.801-47.401
	c9.3-5.999,17.999-11.699,25.499-17.1c10.499-7.2,18.9-13.499,23.699-18.6C403.521,272.34,413.42,228.839,403.221,189.539z"/>
<path style="fill:#FE9923;" d="M372.019,303.539c-4.799,5.101-13.2,11.4-23.699,18.6c-7.5,5.402-16.199,11.102-25.499,17.1
	c-27.001,17.1-58.801,35.4-79.801,47.401c-7.2,4.2-12.9,7.5-17.1,9.901l-9.899,5.4C126.92,451.739,33.02,504.853,21.92,510.253
	c-5.7,2.999-12.599,2.1-17.401-2.401L373.52,135.539c14.7,15.3,24.899,34.2,29.7,54C413.42,228.839,403.521,272.34,372.019,303.539z
	"/>
<g>
	<path style="fill:#FEDB41;" d="M266.12,197.64l-63.6-63.6c4.2-4.501,8.699-8.101,13.5-11.4c3.3-2.701,6.899-4.799,10.499-7.2
		l60.901,60.899C301.52,190.741,279.921,211.439,266.12,197.64z"/>
	<path style="fill:#FEDB41;" d="M181.22,282.54l-45.899-45.901c5.4-9,10.499-17.999,15.899-26.7l51.301,51.301
		C216.62,275.639,195.021,296.339,181.22,282.54z"/>
</g>
<g>
	<path style="fill:#FCBF29;" d="M348.32,322.139c-7.5,5.402-16.199,11.102-25.499,17.1l-55.801-55.8
		c-13.799-13.801,7.202-35.4,21.301-21.301L348.32,322.139z"/>
	<path style="fill:#FCBF29;" d="M243.02,386.64c-7.2,4.2-12.9,7.5-17.1,9.901l-9.899,5.4l-33.9-33.6
		c-13.801-14.101,7.2-35.4,21.299-21.301L243.02,386.64z"/>
</g>
<path style="fill:#FEDB41;" d="M96.319,367.439L75.02,346.14c1.8-3.301,3.6-6.601,5.4-10.201c2.401-4.501,5.7-10.499,9.6-17.401
	l27.599,27.601C131.721,360.239,110.12,381.24,96.319,367.439z"/>
<g>
</g>
<g>
</g>
<g>
</g>
<g>
</g>
<g>
</g>
<g>
</g>
<g>
</g>
<g>
</g>
<g>
</g>
<g>
</g>
<g>
</g>
<g>
</g>
<g>
</g>
<g>
</g>
<g>
</g>
</svg>
